<svg width="23" height="23" viewBox="0 0 23 23" fill="none" xmlns="http://www.w3.org/2000/svg">
<path fill-rule="evenodd" clip-rule="evenodd" d="M0 11.125C0 10.4327 0.56122 9.87152 1.25352 9.87152H20.9965C21.6888 9.87152 22.25 10.4327 22.25 11.125C22.25 11.8173 21.6888 12.3786 20.9965 12.3786H1.25352C0.56122 12.3786 0 11.8173 0 11.125Z" fill="black"/>
<path fill-rule="evenodd" clip-rule="evenodd" d="M12.0114 0.367148C12.5009 0.856678 12.5009 1.65036 12.0114 2.13989L3.02627 11.125L12.0114 20.1101C12.5009 20.5996 12.5009 21.3933 12.0114 21.8828C11.5218 22.3724 10.7282 22.3724 10.2386 21.8828L0.367148 12.0114C-0.122383 11.5218 -0.122383 10.7282 0.367148 10.2386L10.2386 0.367148C10.7282 -0.122383 11.5218 -0.122383 12.0114 0.367148Z" fill="black"/>
</svg>
