<svg width="160" height="22" viewBox="0 0 160 22" fill="none" xmlns="http://www.w3.org/2000/svg">
<path d="M12.8255 0.418481C12.7137 2.11232 12.6577 3.62681 12.6577 4.96196C12.6577 5.89855 12.6817 6.6558 12.7297 7.2337H12.1783C11.8586 4.98188 11.3792 3.39765 10.7399 2.48098C10.1006 1.56431 9.20563 1.10598 8.05492 1.10598H7.26381C6.76837 1.10598 6.40878 1.1558 6.18503 1.25544C5.96128 1.35507 5.80945 1.55435 5.72954 1.85326C5.64963 2.13225 5.60968 2.59058 5.60968 3.22826V10.7609H6.44873C7.29578 10.7609 7.93506 10.3723 8.36657 9.59511C8.81407 8.81793 9.12572 7.8913 9.30152 6.81522H9.8529C9.80495 7.65217 9.78098 8.58877 9.78098 9.625V11.0598C9.78098 12.0761 9.82892 13.4909 9.92482 15.3043H9.37344C9.03781 12.6739 8.06291 11.3587 6.44873 11.3587H5.60968V18.2337C5.60968 19.0308 5.67361 19.6187 5.80146 19.9973C5.9453 20.356 6.18503 20.5951 6.52065 20.7147C6.87226 20.8342 7.42363 20.904 8.17479 20.9239V21.5815C6.209 21.5217 4.74665 21.4918 3.78773 21.4918C2.98863 21.4918 1.98177 21.5118 0.767135 21.5516L0 21.5815V20.9837C0.527406 20.9438 0.910973 20.8641 1.1507 20.7446C1.40642 20.625 1.57423 20.3958 1.65414 20.0571C1.75003 19.7183 1.79797 19.1703 1.79797 18.413V3.58696C1.79797 2.82971 1.75003 2.2817 1.65414 1.94294C1.57423 1.60417 1.40642 1.375 1.1507 1.25544C0.910973 1.13587 0.527406 1.05616 0 1.01631V0.418481C1.72605 0.478262 4.33112 0.508153 7.81519 0.508153C10.1645 0.508153 11.8347 0.478262 12.8255 0.418481Z" fill="black"/>
<path d="M26.7319 19.0707C26.9397 19.7283 27.1794 20.2065 27.4511 20.5054C27.7228 20.8043 27.9865 20.9638 28.2422 20.9837V21.5815C27.2833 21.5217 26.0687 21.4918 24.5983 21.4918C22.9682 21.4918 21.7535 21.5217 20.9544 21.5815V20.9837C21.5618 20.9438 21.9933 20.8542 22.249 20.7147C22.5047 20.5553 22.6326 20.2862 22.6326 19.9076C22.6326 19.5489 22.5367 19.0707 22.3449 18.4728L20.9065 13.5707H15.6804L15.0571 15.6332C14.6096 17.0679 14.3858 18.1739 14.3858 18.9511C14.3858 19.6884 14.5617 20.2065 14.9133 20.5054C15.2808 20.7844 15.8162 20.9438 16.5194 20.9837V21.5815C15.4327 21.5217 14.4418 21.4918 13.5468 21.4918C12.8116 21.4918 12.2043 21.5217 11.7248 21.5815V20.9837C12.508 20.8043 13.1952 19.7582 13.7865 17.8451L19.2524 0.358697C19.4282 0.378624 19.7079 0.388587 20.0914 0.388587C20.475 0.388587 20.7467 0.378624 20.9065 0.358697L26.7319 19.0707ZM20.7387 12.9728L18.3654 4.90217L15.8722 12.9728H20.7387Z" fill="black"/>
<path d="M34.8826 0.0298934C35.7136 0.0298934 36.3769 0.129531 36.8723 0.328806C37.3678 0.528081 37.8712 0.81703 38.3826 1.19565C38.5584 1.31522 38.7102 1.41486 38.8381 1.49457C38.9819 1.57428 39.1018 1.61413 39.1977 1.61413C39.3415 1.61413 39.4534 1.51449 39.5333 1.31522C39.6132 1.09602 39.6772 0.757248 39.7251 0.298915H40.2765C40.1966 1.63406 40.1566 3.9058 40.1566 7.11413H39.6052C39.5413 6.03804 39.3415 5.01178 39.0059 4.03533C38.6863 3.05888 38.2228 2.27174 37.6155 1.67392C37.0241 1.05616 36.3289 0.747284 35.5298 0.747284C34.7467 0.747284 34.1074 1.02627 33.612 1.58424C33.1325 2.12228 32.8928 2.8596 32.8928 3.7962C32.8928 4.49366 33.0127 5.10145 33.2524 5.61957C33.4921 6.13768 33.8278 6.61594 34.2593 7.05435C34.6908 7.47283 35.354 8.05072 36.249 8.78804L37.0162 9.44565C37.9591 10.2228 38.7023 10.9004 39.2456 11.4783C39.789 12.0562 40.2285 12.7337 40.5642 13.5109C40.9158 14.2681 41.0916 15.1549 41.0916 16.1712C41.0916 17.4466 40.8279 18.5226 40.3005 19.3995C39.7731 20.2563 39.0539 20.904 38.1429 21.3424C37.2479 21.7808 36.249 22 35.1463 22C34.2513 22 33.5081 21.9004 32.9168 21.7011C32.3254 21.5018 31.7821 21.2328 31.2866 20.894C30.935 20.615 30.6633 20.4755 30.4715 20.4755C30.3277 20.4755 30.2158 20.5851 30.1359 20.8043C30.056 21.0036 29.9921 21.3324 29.9441 21.7908H29.3927C29.4567 20.5353 29.4886 17.8451 29.4886 13.7201H30.04C30.1519 15.952 30.5514 17.7654 31.2387 19.1603C31.9259 20.5353 32.9807 21.2228 34.4031 21.2228C35.2661 21.2228 35.9773 20.9339 36.5367 20.356C37.0961 19.7781 37.3758 18.9511 37.3758 17.875C37.3758 16.7591 37.0881 15.8025 36.5127 15.0054C35.9374 14.2083 35.0264 13.3116 33.7798 12.3152C32.8209 11.538 32.0538 10.8605 31.4784 10.2826C30.903 9.70471 30.4316 9.02717 30.064 8.25C29.6964 7.4529 29.5126 6.53623 29.5126 5.5C29.5126 4.30435 29.7523 3.29801 30.2318 2.48098C30.7272 1.64402 31.3825 1.02627 32.1976 0.627719C33.0127 0.229169 33.9077 0.0298934 34.8826 0.0298934Z" fill="black"/>
<path d="M60.4614 1.01631C59.918 1.05616 59.5264 1.13587 59.2867 1.25544C59.047 1.375 58.8791 1.60417 58.7833 1.94294C58.7033 2.2817 58.6634 2.82971 58.6634 3.58696V18.413C58.6634 19.1703 58.7033 19.7183 58.7833 20.0571C58.8791 20.3958 59.047 20.625 59.2867 20.7446C59.5264 20.8641 59.918 20.9438 60.4614 20.9837V21.5815C59.6782 21.5217 58.4636 21.4918 56.8175 21.4918C55.2033 21.4918 53.9487 21.5217 53.0537 21.5815V20.9837C53.5811 20.9438 53.9647 20.8641 54.2044 20.7446C54.4601 20.625 54.6279 20.3958 54.7078 20.0571C54.8037 19.7183 54.8517 19.1703 54.8517 18.413V11.2391H48.4988V18.413C48.4988 19.1703 48.5388 19.7183 48.6187 20.0571C48.7146 20.3958 48.8824 20.625 49.1221 20.7446C49.3619 20.8641 49.7534 20.9438 50.2968 20.9837V21.5815C49.4338 21.5217 48.2271 21.4918 46.6769 21.4918C44.9668 21.4918 43.7042 21.5217 42.8892 21.5815V20.9837C43.4166 20.9438 43.8001 20.8641 44.0399 20.7446C44.2956 20.625 44.4634 20.3958 44.5433 20.0571C44.6392 19.7183 44.6871 19.1703 44.6871 18.413V3.58696C44.6871 2.82971 44.6392 2.2817 44.5433 1.94294C44.4634 1.60417 44.2956 1.375 44.0399 1.25544C43.8001 1.13587 43.4166 1.05616 42.8892 1.01631V0.418481C43.7042 0.478262 44.9668 0.508153 46.6769 0.508153C48.2271 0.508153 49.4338 0.478262 50.2968 0.418481V1.01631C49.7534 1.05616 49.3619 1.13587 49.1221 1.25544C48.8824 1.375 48.7146 1.60417 48.6187 1.94294C48.5388 2.2817 48.4988 2.82971 48.4988 3.58696V10.6413H54.8517V3.58696C54.8517 2.82971 54.8037 2.2817 54.7078 1.94294C54.6279 1.60417 54.4601 1.375 54.2044 1.25544C53.9647 1.13587 53.5811 1.05616 53.0537 1.01631V0.418481C53.9487 0.478262 55.2033 0.508153 56.8175 0.508153C58.4636 0.508153 59.6782 0.478262 60.4614 0.418481V1.01631Z" fill="black"/>
<path d="M69.4705 1.01631C68.9271 1.05616 68.5356 1.13587 68.2958 1.25544C68.0561 1.375 67.8883 1.60417 67.7924 1.94294C67.7125 2.2817 67.6725 2.82971 67.6725 3.58696V18.413C67.6725 19.1703 67.7125 19.7183 67.7924 20.0571C67.8883 20.3958 68.0561 20.625 68.2958 20.7446C68.5356 20.8641 68.9271 20.9438 69.4705 20.9837V21.5815C68.6075 21.5217 67.4009 21.4918 65.8506 21.4918C64.1405 21.4918 62.878 21.5217 62.0629 21.5815V20.9837C62.5903 20.9438 62.9738 20.8641 63.2136 20.7446C63.4693 20.625 63.6371 20.3958 63.717 20.0571C63.8129 19.7183 63.8608 19.1703 63.8608 18.413V3.58696C63.8608 2.82971 63.8129 2.2817 63.717 1.94294C63.6371 1.60417 63.4693 1.375 63.2136 1.25544C62.9738 1.13587 62.5903 1.05616 62.0629 1.01631V0.418481C62.878 0.478262 64.1405 0.508153 65.8506 0.508153C67.4009 0.508153 68.6075 0.478262 69.4705 0.418481V1.01631Z" fill="black"/>
<path d="M79.5911 0C81.2851 0 82.7635 0.428443 84.0261 1.28533C85.3046 2.14221 86.2955 3.38768 86.9987 5.02174C87.7019 6.63587 88.0535 8.56884 88.0535 10.8207C88.0535 13.0127 87.6939 14.9556 86.9747 16.6495C86.2555 18.3433 85.2487 19.6585 83.9541 20.5951C82.6756 21.5317 81.2132 22 79.5671 22C77.873 22 76.3867 21.5716 75.1081 20.7147C73.8455 19.8578 72.8626 18.6223 72.1594 17.0082C71.4562 15.3741 71.1046 13.4312 71.1046 11.1793C71.1046 8.98732 71.4642 7.04438 72.1834 5.35054C72.9026 3.6567 73.9015 2.34149 75.18 1.40489C76.4746 0.468298 77.9449 0 79.5911 0ZM79.4952 0.538044C78.6161 0.538044 77.841 0.986414 77.1698 1.88315C76.4985 2.75997 75.9791 3.99547 75.6115 5.58967C75.2599 7.18388 75.0841 9.00725 75.0841 11.0598C75.0841 13.1322 75.2839 14.9556 75.6835 16.5299C76.099 18.1042 76.6504 19.3197 77.3376 20.1766C78.0408 21.0335 78.8159 21.462 79.663 21.462C80.542 21.462 81.3171 21.0236 81.9884 20.1467C82.6596 19.25 83.171 18.0045 83.5226 16.4103C83.8902 14.8161 84.074 12.9928 84.074 10.9402C84.074 8.86775 83.8662 7.04438 83.4507 5.47011C83.0512 3.89583 82.4998 2.68025 81.7966 1.82337C81.1093 0.966486 80.3422 0.538044 79.4952 0.538044Z" fill="black"/>
<path d="M105.51 1.01631C104.982 1.11594 104.591 1.28533 104.335 1.52446C104.095 1.76359 103.927 2.14221 103.831 2.66033C103.752 3.17844 103.712 3.94565 103.712 4.96196V21.6413L103.136 21.6114L102.489 21.6413L92.0847 5.20109V16.6793C92.0847 17.8551 92.1327 18.7219 92.2286 19.2799C92.3245 19.8179 92.5322 20.2165 92.8519 20.4755C93.1715 20.7147 93.6909 20.8841 94.4101 20.9837V21.5815C93.7868 21.5217 92.9238 21.4918 91.821 21.4918C90.942 21.4918 90.2468 21.5217 89.7354 21.5815V20.9837C90.2628 20.8841 90.6463 20.7147 90.8861 20.4755C91.1418 20.2364 91.3096 19.8578 91.3895 19.3397C91.4854 18.8216 91.5333 18.0543 91.5333 17.038V3.58696C91.5333 2.82971 91.4854 2.2817 91.3895 1.94294C91.3096 1.60417 91.1418 1.375 90.8861 1.25544C90.6463 1.13587 90.2628 1.05616 89.7354 1.01631V0.418481C90.2468 0.478262 90.942 0.508153 91.821 0.508153C92.6201 0.508153 93.3074 0.478262 93.8827 0.418481L103.16 14.6766V5.32065C103.16 4.14493 103.112 3.28804 103.016 2.75C102.921 2.19203 102.713 1.79348 102.393 1.55435C102.073 1.29529 101.554 1.11594 100.835 1.01631V0.418481C101.458 0.478262 102.321 0.508153 103.424 0.508153C104.319 0.508153 105.014 0.478262 105.51 0.418481V1.01631Z" fill="black"/>
<path d="M114.42 1.01631C113.876 1.05616 113.485 1.13587 113.245 1.25544C113.005 1.375 112.838 1.60417 112.742 1.94294C112.662 2.2817 112.622 2.82971 112.622 3.58696V18.413C112.622 19.1703 112.662 19.7183 112.742 20.0571C112.838 20.3958 113.005 20.625 113.245 20.7446C113.485 20.8641 113.876 20.9438 114.42 20.9837V21.5815C113.557 21.5217 112.35 21.4918 110.8 21.4918C109.09 21.4918 107.827 21.5217 107.012 21.5815V20.9837C107.54 20.9438 107.923 20.8641 108.163 20.7446C108.419 20.625 108.586 20.3958 108.666 20.0571C108.762 19.7183 108.81 19.1703 108.81 18.413V3.58696C108.81 2.82971 108.762 2.2817 108.666 1.94294C108.586 1.60417 108.419 1.375 108.163 1.25544C107.923 1.13587 107.54 1.05616 107.012 1.01631V0.418481C107.827 0.478262 109.09 0.508153 110.8 0.508153C112.35 0.508153 113.557 0.478262 114.42 0.418481V1.01631Z" fill="black"/>
<path d="M122.019 0.0298934C122.85 0.0298934 123.513 0.129531 124.008 0.328806C124.504 0.528081 125.007 0.81703 125.519 1.19565C125.695 1.31522 125.846 1.41486 125.974 1.49457C126.118 1.57428 126.238 1.61413 126.334 1.61413C126.478 1.61413 126.59 1.51449 126.669 1.31522C126.749 1.09602 126.813 0.757248 126.861 0.298915H127.413C127.333 1.63406 127.293 3.9058 127.293 7.11413H126.741C126.677 6.03804 126.478 5.01178 126.142 4.03533C125.822 3.05888 125.359 2.27174 124.752 1.67392C124.16 1.05616 123.465 0.747284 122.666 0.747284C121.883 0.747284 121.244 1.02627 120.748 1.58424C120.269 2.12228 120.029 2.8596 120.029 3.7962C120.029 4.49366 120.149 5.10145 120.389 5.61957C120.628 6.13768 120.964 6.61594 121.395 7.05435C121.827 7.47283 122.49 8.05072 123.385 8.78804L124.152 9.44565C125.095 10.2228 125.838 10.9004 126.382 11.4783C126.925 12.0562 127.365 12.7337 127.7 13.5109C128.052 14.2681 128.228 15.1549 128.228 16.1712C128.228 17.4466 127.964 18.5226 127.437 19.3995C126.909 20.2563 126.19 20.904 125.279 21.3424C124.384 21.7808 123.385 22 122.282 22C121.387 22 120.644 21.9004 120.053 21.7011C119.462 21.5018 118.918 21.2328 118.423 20.894C118.071 20.615 117.799 20.4755 117.608 20.4755C117.464 20.4755 117.352 20.5851 117.272 20.8043C117.192 21.0036 117.128 21.3324 117.08 21.7908H116.529C116.593 20.5353 116.625 17.8451 116.625 13.7201H117.176C117.288 15.952 117.688 17.7654 118.375 19.1603C119.062 20.5353 120.117 21.2228 121.539 21.2228C122.402 21.2228 123.114 20.9339 123.673 20.356C124.232 19.7781 124.512 18.9511 124.512 17.875C124.512 16.7591 124.224 15.8025 123.649 15.0054C123.074 14.2083 122.163 13.3116 120.916 12.3152C119.957 11.538 119.19 10.8605 118.615 10.2826C118.039 9.70471 117.568 9.02717 117.2 8.25C116.833 7.4529 116.649 6.53623 116.649 5.5C116.649 4.30435 116.889 3.29801 117.368 2.48098C117.863 1.64402 118.519 1.02627 119.334 0.627719C120.149 0.229169 121.044 0.0298934 122.019 0.0298934Z" fill="black"/>
<path d="M144.601 0.418481C144.489 2.3116 144.433 4.00543 144.433 5.5C144.433 6.43659 144.457 7.19384 144.505 7.77174H143.954C143.57 5.32065 143.043 3.59692 142.371 2.60054C141.716 1.60417 140.813 1.10598 139.662 1.10598H139.111V18.1739C139.111 19.0109 139.175 19.6187 139.303 19.9973C139.447 20.3759 139.686 20.635 140.022 20.7745C140.374 20.894 140.925 20.9638 141.676 20.9837V21.5815C139.662 21.5217 138.144 21.4918 137.121 21.4918C136.114 21.4918 134.652 21.5217 132.734 21.5815V20.9837C133.485 20.9638 134.029 20.894 134.364 20.7745C134.716 20.635 134.956 20.3759 135.084 19.9973C135.227 19.6187 135.299 19.0109 135.299 18.1739V1.10598H134.772C134.005 1.10598 133.35 1.31522 132.806 1.7337C132.279 2.15218 131.823 2.84964 131.44 3.82609C131.056 4.78261 130.729 6.09783 130.457 7.77174H129.905C129.953 7.19384 129.977 6.43659 129.977 5.5C129.977 4.00543 129.921 2.3116 129.81 0.418481C131.264 0.478262 133.733 0.508153 137.217 0.508153C140.701 0.508153 143.163 0.478262 144.601 0.418481Z" fill="black"/>
<path d="M158.49 19.0707C158.697 19.7283 158.937 20.2065 159.209 20.5054C159.481 20.8043 159.744 20.9638 160 20.9837V21.5815C159.041 21.5217 157.826 21.4918 156.356 21.4918C154.726 21.4918 153.511 21.5217 152.712 21.5815V20.9837C153.32 20.9438 153.751 20.8542 154.007 20.7147C154.262 20.5553 154.39 20.2862 154.39 19.9076C154.39 19.5489 154.294 19.0707 154.103 18.4728L152.664 13.5707H147.438L146.815 15.6332C146.367 17.0679 146.144 18.1739 146.144 18.9511C146.144 19.6884 146.319 20.2065 146.671 20.5054C147.039 20.7844 147.574 20.9438 148.277 20.9837V21.5815C147.19 21.5217 146.2 21.4918 145.305 21.4918C144.569 21.4918 143.962 21.5217 143.483 21.5815V20.9837C144.266 20.8043 144.953 19.7582 145.544 17.8451L151.01 0.358697C151.186 0.378624 151.466 0.388587 151.849 0.388587C152.233 0.388587 152.504 0.378624 152.664 0.358697L158.49 19.0707ZM152.496 12.9728L150.123 4.90217L147.63 12.9728H152.496Z" fill="black"/>
</svg>
